<?xml version="1.0" encoding="utf-8"?>
<!-- Generator: Adobe Illustrator 18.1.1, SVG Export Plug-In . SVG Version: 6.00 Build 0)  -->
<svg version="1.1" id="Слой_1" xmlns="http://www.w3.org/2000/svg" xmlns:xlink="http://www.w3.org/1999/xlink" x="0px" y="0px"
	 viewBox="-8 133.5 512.5 67" enable-background="new -8 133.5 512.5 67" xml:space="preserve">
<g>
	<path fill="#18A3FA" d="M-5,138v58.2h58.2V138H-5z M0.4,158.2h2V149h-2v-3.7h8.3v3.7H6.6v9.2h2.1v3.7H0.4V158.2z M24.2,189H0.4
		v-4.6h23.8V189z M24.1,156c0,1-0.2,1.9-0.4,2.5c-0.2,0.7-0.6,1.3-1.2,1.9c-0.5,0.5-1.1,0.9-1.9,1.2c-0.6,0.2-1.5,0.3-2.3,0.3
		c-1.3,0-2.3-0.2-3.2-0.7c-0.8-0.5-1.5-1.1-2.2-1.7l2.2-2.5c0.5,0.5,0.9,0.9,1.4,1.2c0.5,0.3,1,0.5,1.5,0.5c0.7,0,1.2-0.2,1.6-0.6
		c0.4-0.5,0.6-1.2,0.6-2.1v-10.7h3.7V156z"/>
	<path fill="#FFFFFF" d="M69.2,196.3H82V138H69.2C69.2,138,69.2,196.2,69.2,196.3z"/>
	<path fill="#FFFFFF" d="M112.2,150.9c-6.5,0-10.2,3.3-13.1,7.1v-6.3H86.4v44.5H99v-24.8c0-5.9,3.1-9,7.9-9c4.9,0,7.7,3,7.7,9v25
		h12.7v-28.9C127.3,157.2,121.8,150.9,112.2,150.9z"/>
	<path fill="#FFFFFF" d="M147.7,181.4v-19h10.5v-10.7h-10.5v-11.4H135v11.4h-5.3v10.8h5.3v21.1c0,10.3,5.3,13.4,13,13.4
		c4.3,0,7.3-1,10-2.6v-10.3c-1.8,1-3.9,1.6-6.2,1.6C148.9,185.7,147.7,184.3,147.7,181.4z"/>
	<path fill="#FFFFFF" d="M477,137.6h-11.8l-24.9,58.7h13.1l5.3-13.1h24.6l5.3,13.1H502L477,137.6z M463.3,171.9L471,153l7.7,18.9
		H463.3z"/>
	<polygon fill="#FFFFFF" points="405.9,172.6 433.3,172.6 433.3,161.2 405.9,161.2 405.9,149.4 437.1,149.4 437.1,138 393.2,138 
		393.1,196.3 437.5,196.3 437.5,184.9 405.9,184.9 	"/>
	<rect x="224.3" y="135.5" fill="#FFFFFF" width="12.7" height="60.7"/>
	<path fill="#FFFFFF" d="M283.5,175.5c0,6.8-3,9.7-7.8,9.7c-4.1,0-7.3-2.2-10.7-5.8l-8,9c4,4.7,9.9,8.6,19,8.6
		c6.3,0,11.5-1.8,15.1-5.4c3.5-3.5,5.5-8.6,5.5-15.5V138h-13.1V175.5z"/>
	<rect x="241.1" y="135.5" fill="#FFFFFF" width="13.3" height="11.2"/>
	<rect x="318.3" y="138" fill="#FFFFFF" width="12.8" height="58.3"/>
	<path fill="#FFFFFF" d="M181.8,150.9c-13,0-22,10.5-22,23.3c0,13.6,10,23.1,23.4,23.3c8.1,0,14-3.3,18.2-8.4l-7.3-6.4
		c-3.5,3.3-6.6,4.6-10.8,4.6c-5.6,0-9.7-3.1-10.9-8.8h31c0-1.2,0.1-2.4,0.1-3.4C203.5,162.5,196.7,150.9,181.8,150.9z M172.2,170.4
		c1.1-5.7,4.4-9.5,9.7-9.5s8.6,3.8,9.4,9.5H172.2z"/>
	<rect x="207" y="135.5" fill="#FFFFFF" width="12.7" height="60.7"/>
	<rect x="241.5" y="151.7" fill="#FFFFFF" width="12.7" height="44.6"/>
	<path fill="#FFFFFF" d="M358.4,138h-22.7v58.2h22.7c18.2,0,30.9-12.7,30.9-29.1V167C389.3,150.5,376.7,138,358.4,138z M375.9,167.2
		c0,10.3-7,17.4-17.5,17.4h-9.9v-35.1l9.9,0.1C368.8,149.6,375.9,156.8,375.9,167.2L375.9,167.2z"/>
</g>
</svg>
