<?xml version="1.0" encoding="utf-8"?>
<!-- Generator: Adobe Illustrator 18.1.1, SVG Export Plug-In . SVG Version: 6.00 Build 0)  -->
<svg version="1.1" id="Слой_1" xmlns="http://www.w3.org/2000/svg" xmlns:xlink="http://www.w3.org/1999/xlink" x="0px" y="0px"
	 viewBox="68.7 256.3 382 76.7" enable-background="new 68.7 256.3 382 76.7" xml:space="preserve">
<polygon fill="#FFFFFF" points="145,293.2 125.6,289.7 139.2,275.4 116.9,259.1 107.5,276.5 98.1,259.1 75.8,275.4 89.2,289.7 
	69.9,293.2 78.5,319.5 96.2,311 93.7,330.5 121.3,330.5 118.7,311 136.5,319.5 "/>
<g>
	<path fill="#FFFFFF" d="M194.4,268.3l-9.4,17.8c-1.3,2.6-2.2,5.7-2.4,7.9h-1.2c0.1-2.5,0.2-4.9-0.6-8.1l-4.2-17.7h-17.3l12.6,37.5
		l-2.5,17.7H187l2.3-16.7l23.6-38.5H194.4z"/>
	<path fill="#FFFFFF" d="M227.3,282.4c-16.1,0-22.3,5.3-24.5,20.6c-2.2,15.7,4.7,21.5,20.6,21.5c15.9,0,22.2-5.2,24.3-20.2
		C249.9,288.3,243.3,282.4,227.3,282.4z M230.3,302.9c-1.3,8.4-2.2,10.2-6.3,10.2c-4.2,0-4.7-1.5-3.7-8.9c1.3-8.7,2.3-10.5,6.6-10.5
		C230.9,293.7,231.4,295.3,230.3,302.9z"/>
	<path fill="#FFFFFF" d="M278.1,307.6c-3,2.2-4.9,3-7.1,3c-1.2,0-2.1-0.4-1.8-2.2l3.6-24.9h-16.9l-4.1,29.6
		c-1,7.4,2.8,11.5,11.1,11.5c5.4,0,10.6-2.4,16.3-7.9l0.3,6.8h13.1l5.5-40h-16.6L278.1,307.6z"/>
	<path fill="#FFFFFF" d="M334.8,282.4c-4.9,0-10.4,2-15.9,6.6l-0.6-5.4h-13.1l-5.6,40h16.9l3.4-24.7c5-0.8,7.9-1,10.6-1h3.8
		l3.4-15.4H334.8z"/>
	<path fill="#FFFFFF" d="M372.2,296.4l0.1-0.3c1.7-0.6,4.1-2.1,5.8-4.7l15.4-23h-19.2l-13.4,21h-2.6c0.6-1.9,1-3.8,1.3-5.7l2.2-15.3
		h-17.4l-7.8,55.2h17.4l2.5-17.7c0.2-1.6,0.3-3.5,0.1-5.4h2.5l8.6,23h18.7l-9.6-21.5C375.7,299.6,373.7,297,372.2,296.4z"/>
	<path fill="#FFFFFF" d="M408.9,265.2h-6.5c-3.4,0-5.2,1.4-5.5,4.6l-0.6,4.1c-0.4,3.6,1.1,5.3,4.7,5.3h6.6c3.4,0,5.1-1.4,5.5-4.6
		l0.6-4.1C414.1,266.8,412.5,265.2,408.9,265.2z"/>
	<polygon fill="#FFFFFF" points="389.5,323.5 406.2,323.5 411.7,283.5 395,283.5 	"/>
	<path fill="#FFFFFF" d="M438.6,293.6h9.7l1.4-10.1h-9.6l1.5-10.5H425l-1.5,10.5l-7.2,0.4l-1.2,9.7h6.9l-2.9,19.5
		c-1,7,3.8,11.5,12,11.5c3.4,0,9.7-0.5,13.4-1.9l-0.9-10.9h-4.7c-2.5,0-2.8-0.5-2.5-2.6L438.6,293.6z"/>
</g>
<polygon fill="#F25400" points="133,313.4 138.7,295.8 116.6,291.7 132,275.3 117.1,264.5 106.3,284.2 106.3,284.2 95.6,264.5 
	80.6,275.3 96,291.7 74,295.8 79.7,312.8 99.9,303.2 97.1,326 115.6,326 112.6,303.7 112.6,303.7 "/>
<polygon points="101.2,296.5 96,291.7 74,295.7 79.7,313.4 99.9,303.7 99.9,303.7 99.9,303.7 99.9,303.7 99.9,303.7 "/>
</svg>
