<?xml version="1.0" encoding="utf-8"?>
<!-- Generator: Adobe Illustrator 18.1.1, SVG Export Plug-In . SVG Version: 6.00 Build 0)  -->
<svg version="1.1" id="Слой_1" xmlns="http://www.w3.org/2000/svg" xmlns:xlink="http://www.w3.org/1999/xlink" x="0px" y="0px"
	 viewBox="-0.5 0 333 333" enable-background="new -0.5 0 333 333" xml:space="preserve">
<rect x="-0.5" fill="#F1F1F1" width="333" height="333"/>
<g>
	<path fill="#EF5350" d="M296.6,92.1c-15.7,0.9-26.3,37.2-35.1,57.9c2.4,1.6,3.9,4.9,4.5,7.2c0.5,2,0.2,4.1-1,5.9
		c-2.4,3.8-7.8,9.5-11,11.5l-27.6,22.8c-9.2,6.7-18,11.5-21.6,9.4c1.5-1.6,8.6-6.4,15.9-12l27.4-23.4c3.2-2.1,9.9-7.2,11.9-10.5
		c2-3.3-0.5-6.7-3.9-8.6c-1.6-0.9-3.3-1.4-5.1-1.8c-5.4-1.2-11.1-0.5-16.2,1.7c-14.5,6.2-27,17.9-40.5,25
		c-6.4,3.4-16.6,10.5-22.2,12.1c-7.6,2.1-15.1,1.5-21.9,0.8c-13.7-1.3-29.7-2-46.8-0.9c-15.8,1-26.6,6.8-40.2,18.4
		c-9.7,8.3-13.5,18-17,26c-2.1,4.9-3.5,9-5.3,15.5c-3.2,11.2-2.7,14.6-3.9,24.5c-1.1,9.4-0.5,24-1.3,29.7l61-0.1
		c3.9-10.8,2.8-24.2,21.1-34.7c16.9-9.7,87-19.1,104.2-28.2c8.9-4.7,22.3-19.6,29.2-26.9c18.8-20.1,28.2-28.6,33.6-48.4
		C297.9,115.7,306.6,91.4,296.6,92.1z"/>
	<path fill="#EF5350" d="M205.5-6c0.1,0.1,0.2,0.2,0.5,0.5C205.7-5.8,205.5-5.9,205.5-6z"/>
	<path fill="#EF5350" d="M218.9,142.3c0.2,0.2,0.5,0.2,0.7,0.3C219.5,142.6,219.2,142.4,218.9,142.3z"/>
	<path fill="#EF5350" d="M230.9,26.6c-1.4-0.3-2.7-0.2-4.1,0.2C227.2,26.8,228.8,26.3,230.9,26.6z"/>
	<path fill="#EF5350" d="M260.1,96.7c0.5,0.6,1.3,1.1,2.1,1.4C262,98,261.1,97.6,260.1,96.7z"/>
	<path fill="#EF5350" d="M50.2,128.9c11.2,1.5,26.6,5.2,26.6,5.2c-14.8,1.9-25.8-3.8-26.2-4c7.5,8.2,19.5,8.9,20.2,8.9
		c-11.8,1-18.6-5.7-18.9-6c7.7,11.1,26.4,8.4,27.1,8.3c-15,5-24.2-2.4-24.9-2.9c10,11.7,28.6,5.2,28.6,5.2
		c-18.8,9.3-27.5-2.4-27.9-2.8c0.2,0.3,3.6,6.4,12.8,8.7c9.3,2.3,37-11.8,37.7-12.2c-0.6,0.4-20.6,12.6-31.5,14
		c-11.1,1.4-16.6-5.5-16.6-5.5s0.4,6.7,18.8,8.5c13.9,1.3,29.5-9.8,36.2-15.2c-2,1.7-4.9,4.4-9.3,8.4c-15.7,14.1-33.9,8-33.9,8
		s1.4,3.4,22.2,2c20.8-1.3,33.7-21.5,33.7-21.5s-0.1,2.7-10.3,12.9c-10.2,10.1-35.9,12.1-35.9,12.1c26.2,5.9,47-18.4,47-18.4
		s-1.2,2.9-13.1,12.1c-11.5,8.9-23.8,8.6-24.7,8.6c0.8,0.1,9.6,0.8,22.3-3.6c10.7-3.7,27.2-19.4,33.1-25.3
		c-5.3,5.3-18.8,18.6-26.8,23.8c-9.8,6.3-21.1,7-21.8,7.1c11.2,1,20.2-4.2,20.2-4.2c-4.9,5.6-16.7,5.2-16.7,5.2
		c22,5.6,45.7-18.4,45.7-18.4c-12.3,19-30.4,20.1-31.5,20.1c0.5,0,5,0.2,9.3,0.2c4.5,0.1,7.8-1.7,7.8-1.7c1.4,1.1,4.1,0.2,4.1,0.2
		c17.4-5.2,31.5-34.1,32.6-36.3c-11.1,26-24.4,33.7-28.2,35.5c21.3-8.9,31.9-35.9,31.9-35.9s0.4,2.5-8.4,16.5
		c-7.7,12.2-19.6,18-22.4,19.2c13.9-5.6,18.5-13.4,24.6-20.6c4.6-5.3,12.6-18.8,16.3-25.6c-1.7,3.2-4.7,8.9-9.9,19.3
		c-10.7,21.3-29.7,27.1-29.7,27.1c5.3,1.1,11-5,11-5c2,2.6,9.4-1.8,9.4-1.8s4.8,4.9,24.9-14.2s24.6-43.7,24.6-43.7
		c-2.2,30.9-29.6,49.8-29.6,49.8s6-1.1,22.8-16.1s21.1-32.6,21.1-32.6c-0.9,19.4-19.9,34.1-22,35.6c14.1-9.3,21-22.4,24.4-32.9
		c-0.4,1.6-0.8,3.5-1.3,5.4c-4.9,20.5-19.3,26.5-20.6,27.1c17.4-5.2,26.1-30.5,29.5-43.2c0.2,5.6,3,11.8,6.4,17
		c-1.9,6.5-10.4,8.9-10.9,9c0.4-0.1,6.7-1.3,10-5.6c0.5-0.6,0.9-1.6,1.3-2.7c1.5,2.3,3.1,4.4,4.6,6.1c0.9,1,1.6,2,2.2,2.8
		c-0.9,5.3-4,8.1-4.9,8.8c3.2-2.3,4.8-5.1,5.5-8c3.2,4.9,1.9,6.4,1.2,10.6c-0.8,4.8,2,7.3,2.3,7.6c-0.3-0.4-2.6-3.3-0.5-10
		c0.9-2.8-0.5-6.5-2.7-10.4l0,0c0.3-4.1-0.9-8.2-1.5-11.3c-0.2-0.7-0.2-1.6-0.3-2.4c0.2-0.4,0.5-0.8,0.8-1.2
		c3.2-4.9,3.9-17.2,4-17.9c0.1,7.6,1.1,13,2.6,16.9c-2.8,4.2-5.3,6.8-5.6,7.1c0.3-0.3,2.8-2.4,5.8-6.5c2.8,7.1,7.1,8.8,9.1,9.2
		c-1.5-0.5-4.2-2.5-7.8-9.5c-0.2-0.3-0.3-0.6-0.4-0.9c1.3-1.8,2.7-4,4-6.4c0.1,0.1,0.2,0.2,0.2,0.2c-0.1-0.1-0.2-0.2-0.2-0.2
		c0.9-1.6,1.7-3.4,2.5-5.3c0.2-0.5,0.4-1.1,0.6-1.6c0.7,1.8,1.4,2.8,1.6,3.1c-0.7-1.1-1.2-2.2-1.5-3.4l0,0
		c3.6-10.2,4.2-24.9,4.3-31.1c-9.3,8.9-22,19.6-37.3,30c0,0.2-0.1,0.6-0.1,1.1c0-0.5,0.1-0.8,0.1-1.1
		c-18.7,12.8-41.5,25.2-67.4,33.4c-9.8,22.4-36.6,34-40.6,35.7c1.6-0.7,6.8-3.5,17.6-13.1c10.6-9.5,13.5-17.2,14.2-19.9
		c-2.6,0.7-5.3,1.4-7.9,2c-5.3,7.1-15.6,13-16.6,13.5c6.8-5.1,9.3-10.2,10-12.1c-16.5,3.4-34,4.9-52.3,3.7c1.5,0,20.4-0.3,46.8-6.1
		c-1.6-0.5-7.1-2.3-10.9-8.2c0,0,8.8,6.7,19.5,6.2c7.8-2,16-4.3,24.6-7.4c-2.9-0.2-11.1-1.9-21.8-11.8c0.8,0.5,16.2,11.1,24,11.1
		c0.2,0,0,0,0.2,0c9.3-3.3,18.8-7.4,28.5-12.2c-3.4-1.1-11-4.1-14.8-9.7c-3.7-5.5-8.6-10.4-10.7-12.4c2.8,2.5,10,9.1,13.1,11.3
		c2.8,2,13.3,5.8,18.5,7.6c21.6-11.6,43.2-27.5,61.7-49.3c-1.6-1-3.6-1.3-3.6-1.3s-13.3-3.3-20.1-14.4c-3.8-6.1-7.9-7.9-11-8.3
		c4.8,1.1,9.6,6.7,11.7,13.6c2.7,8.8,8.2,10.7,8.2,10.7c-12.3-4-15.6-16-15.8-17.1c1.6,12.1,10.1,17.1,13.9,18.8
		c-17.5-6.9-26.2-22.1-26.8-23.1c0.7,1.6,1.6,3.2,2.6,4.7c6.2,18.3,25.3,22.9,25.3,22.9c-5.4,0.7-18.2-2.1-26-11.1
		c-7.8-8.9-15.9-7.4-21.3-7.1c-0.9,0-1.8-0.1-2.7-0.2c-0.5-7.9,0.8-14.2,0.8-14.2s-2,5.1-1.3,14.1c-4.6-1.1-9.6-4.2-9.9-4.4
		c0.2,0.2,4.8,4.1,10,5.5c0.2,2.8,0.8,6,1.6,9.4c-1.3-0.1-2.7-0.1-4,0.1c-14.4,1.6-21.2-11.6-21.6-12.3c0.2,0.7,4.3,12.7,21.2,13.9
		c1.7,0.1,3.4,0.4,5,0.8c5,16,25.5,21.7,25.5,21.7c-8.8-0.3-29-15.1-42-19.1c-12.6-3.9-37.7,1.4-39.2,1.7c0.5-0.1,5.4-0.8,13.7,1
		c8.2,1.8,26.4,11.8,29.1,13.4c-10.7-5.4-27.7-11.3-36.6-11.8c-9-0.5-18.5,2.3-18.5,2.3c16-0.4,42.8,13.7,43.6,14
		c-0.8-0.3-32.5-12.5-46.3-12.6c-13.7-0.2-31.4,5.6-31.9,5.7c8.6-1.3,24.9,0.1,24.9,0.1c29.2,2.7,47.3,20.5,48.7,21.9
		c-18.8-17.5-56.8-20.8-70.3-20.5c-13.3,0.3-22.8,9.3-23.1,9.5c22-6.4,69.2,17.2,74.9,20.2c-3.1-1.5-17.7-8.4-28.7-11.5
		c-12.4-3.5-30.1-8.4-42.8-6.7c-12.6,1.7-14.9,8.7-14.9,8.7c4.9-2.1,13.6-1.6,13.6-1.6c28.3,1.4,56.6,26.8,56.6,26.8
		s-25.2-17.1-41-20.8c-15.5-3.5-30.7,1.8-31.1,2c26.1-4.4,46.1,15,54.2,24.6c-10.5-10.8-32.2-19.1-41.9-20.6
		c-11.3-1.7-19,2.4-19,2.4c15.9-1.9,34.1,11.3,34.1,11.3c-16.9-8.2-34.3-4.3-35.1-4.1c30.3-1.9,51.5,17.5,51.9,18
		c-0.5-0.3-19.1-12.3-30.5-14c-11.5-1.7-25.9,2.7-26.4,2.8c26.2-5.3,42.7,9.3,43.2,9.7c-0.4-0.2-6.6-3-14.5-5.4
		c-8-2.4-16.8-1.5-17.3-1.4c11.7,0.2,21.7,6,26.4,9.3c-2-1.2-5.3-2.7-10.9-4.7c-12.5-4.5-26.4-1.6-26.4-1.6c0.2,0,0.3,0,0.5,0
		c9.7-0.2,14.6,4.8,14.6,4.8c-7.9-2-16.9-0.9-17.5-0.9c8.3-0.5,17.3,3.7,19.5,4.9c-0.9-0.3-2.9-0.9-7.7-1.6
		C56.1,128,50.2,128.9,50.2,128.9z M262.8,87.9c-1.3-6.4,1.8-13.3,1.8-13.3C265,79.1,264.3,83.7,262.8,87.9z M262.4,77.7
		c-0.9,4.6-0.5,8.2,0.3,10.7c-0.6,1.9-1.4,3.7-2.3,5.4c-0.3,0.6-0.6,1.3-0.9,1.9c-0.9-1.6-1.3-3.6-1.5-5.8c0.5-0.9,1.1-2,1.8-3.1
		c3.8-7.3,2.5-23,2.4-23.5C262.4,63.6,264.3,68.2,262.4,77.7z M258.9,67.4c0,0,2,9.5,1.6,15.1c-0.2,2.2-1.3,4.7-2.5,7.1
		c-0.2-3.7,0.5-7.5,1-9C260.1,77.3,258.9,67.4,258.9,67.4z M259.4,95.9c-1.2,2.3-2.5,4.4-3.8,6.3c-0.8-2-1.3-4.4-1.4-6.8
		c0.6-0.7,1.6-2,3-4C257.7,93.5,258.5,94.9,259.4,95.9z M256.7,72.4c0,0,0.7,1-0.1,12.5c-0.2,2.5,0,4.6,0.4,6.3
		c-1.1,1.7-2.2,3.2-2.9,4.2C253.3,84.7,256.7,72.4,256.7,72.4z M248.2,88.9c0,0,0.8,1.8,1.3,8.4c0.2,2.6-0.9,5.1-2.2,7.2
		C247,98,248.2,88.9,248.2,88.9z M247.2,111.1c0.9,2.6,1.3,4.9,1.3,7c-1.6-2.8-3.5-5.7-5.2-8.6c0.6-0.4,1.6-1.1,2.7-2.4
		C246.4,108.5,246.8,109.8,247.2,111.1z M244.7,96.3c0,2.7,0.2,6.1,1.2,10.2c-1,1.3-2,2.3-2.7,2.9c-0.2-0.4-0.5-0.8-0.6-1.2
		C243.5,104.5,244.3,100,244.7,96.3z M242.1,86.8c-1.3,4.7-0.8,12.5-0.7,18.9c-0.7-1.5-1.3-3-1.5-4.3
		C238.8,95.9,240.6,90.2,242.1,86.8z M224.8,34.5c8.9,13.3,26.8,21.6,26.8,21.6C233.6,52.2,226.7,39,224.8,34.5z M200.1,39.8
		c1.3,0.3,2.7,0.5,4.2,0.4c7-0.5,18.2,7.3,24.8,13.4s14,7.8,14,7.8c0,0-2.7,2.5-10-3.6c-7.3-6.1-19.1-8.1-19.1-8.1
		c8.6,2.7,13.7,10.4,15.7,14.4c-3.8-4.9-16.2-13.7-27.7-14.9C200.9,46,200.4,42.8,200.1,39.8z M211.8,62.9c-4.2-3.1-7-7-8.8-11.1
		c14.4,3.8,25.4,16.6,25.4,16.6C220.8,68.9,211.8,62.9,211.8,62.9z"/>
	<path fill="#EF5350" d="M265.4,113.5c-0.1,0-0.5,0-1.2-0.2C264.9,113.6,265.3,113.5,265.4,113.5z"/>
	<path fill="#EF5350" d="M230.1,88.2c0-0.4,0-0.5,0-0.5C230.1,87.8,230.1,87.9,230.1,88.2L230.1,88.2z"/>
	<path fill="#EF5350" d="M267.4,55.4c0,0,0,1,0,2.8c12-11.5,18.8-19.9,19-21c0.9-4.1-7.1-4.6-7.1-4.6c-4.3,6.5-8.9,12.6-13.8,18.2
		C266.9,51.6,268.1,53,267.4,55.4z"/>
</g>
</svg>
