<?xml version="1.0" encoding="utf-8"?>
<!-- Generator: Adobe Illustrator 21.0.0, SVG Export Plug-In . SVG Version: 6.00 Build 0)  -->
<svg version="1.1" id="Layer_1" xmlns="http://www.w3.org/2000/svg" xmlns:xlink="http://www.w3.org/1999/xlink" x="0px" y="0px"
	 viewBox="0 0 512 512" style="enable-background:new 0 0 512 512;" xml:space="preserve">
<style type="text/css">
	.st0{fill:#FFFFFF;}
</style>
<path class="st0" d="M507.6,232.1c0,0-9.3-3.5-36.2-6c-32.9-3-42.8-15.4-53.7-30.7h-0.2c-1.4-3.6-2.8-7.2-4.4-10.8l0.1-0.1
	c-3.1-18.6-4.8-34.3,16.3-59.7C446.7,104,450.8,95,450.8,95c-4-10.3-13.8-20-13.8-20s-9.7-9.7-20-13.8c0,0-9.1,4.1-29.8,21.4
	c-25.4,21.1-41.1,19.4-59.7,16.3l-0.1,0.1c-3.5-1.6-7.1-3.1-10.8-4.4v-0.2c-15.3-10.9-27.7-20.9-30.7-53.7c-2.5-26.9-6-36.2-6-36.2
	C269.8,0,256,0,256,0s-13.8,0-23.9,4.4c0,0-3.5,9.3-6,36.2c-3,32.9-15.4,42.8-30.7,53.7v0.2c-3.6,1.4-7.3,2.8-10.8,4.4l-0.1-0.1
	c-18.6,3.1-34.3,4.8-59.7-16.3C104,65.3,95,61.2,95,61.2C84.7,65.3,75,75,75,75s-9.7,9.7-13.8,20c0,0,4.1,9.1,21.4,29.8
	c21.1,25.4,19.4,41.1,16.3,59.7l0.1,0.1c-1.6,3.5-3.1,7.1-4.4,10.8h-0.2c-10.9,15.4-20.9,27.7-53.7,30.7c-26.9,2.5-36.2,6-36.2,6
	C0,242.3,0,256,0,256s0,13.8,4.4,23.9c0,0,9.3,3.5,36.2,6c32.9,3,42.8,15.4,53.7,30.7h0.2c1.4,3.7,2.8,7.3,4.4,10.8l-0.1,0.1
	c3.1,18.6,4.8,34.3-16.3,59.7C65.3,408,61.2,417,61.2,417c4.1,10.3,13.8,20,13.8,20s9.7,9.7,20,13.8c0,0,9-4.1,29.8-21.4
	c25.4-21.1,41.1-19.4,59.7-16.3l0.1-0.1c3.5,1.6,7.1,3.1,10.8,4.4v0.2c15.3,10.9,27.7,20.9,30.7,53.7c2.5,26.9,6,36.2,6,36.2
	C242.3,512,256,512,256,512s13.8,0,23.9-4.4c0,0,3.5-9.3,6-36.2c3-32.9,15.4-42.8,30.7-53.7v-0.2c3.7-1.4,7.3-2.8,10.8-4.4l0.1,0.1
	c18.6-3.1,34.3-4.8,59.7,16.3c20.8,17.3,29.8,21.4,29.8,21.4c10.3-4.1,20-13.8,20-13.8s9.7-9.7,13.8-20c0,0-4.1-9.1-21.4-29.8
	c-21.1-25.4-19.4-41.1-16.3-59.7l-0.1-0.1c1.6-3.5,3.1-7.1,4.4-10.8h0.2c10.9-15.3,20.9-27.7,53.7-30.7c26.9-2.5,36.2-6,36.2-6
	C512,269.8,512,256,512,256S512,242.2,507.6,232.1z M256,375.7c-66.1,0-119.7-53.6-119.7-119.7S189.9,136.3,256,136.3
	c66.1,0,119.7,53.6,119.7,119.7S322.1,375.7,256,375.7z"/>
</svg>
