<?xml version="1.0" encoding="utf-8"?>
<!-- Generator: Adobe Illustrator 21.0.0, SVG Export Plug-In . SVG Version: 6.00 Build 0)  -->
<svg version="1.1" id="Capa_1" xmlns="http://www.w3.org/2000/svg" xmlns:xlink="http://www.w3.org/1999/xlink" x="0px" y="0px"
	 viewBox="0 0 474 474" style="enable-background:new 0 0 474 474;" xml:space="preserve">
<style type="text/css">
	.st0{fill:#FFFFFF;}
</style>
<g>
	<path class="st0" d="M184.8,427.8l16.3,10.9c3.2,1.9,1.5,6.8-2.1,6.5c-0.2,0-0.3,0-0.5,0c-14.2-2.5-26.4-5.4-38-9.5
		c-9.1-3.5-18.3-8-28.2-13.7c-26.1-15-48.5-34.8-66.2-58c-0.7-0.9-1.3-1.7-1.9-2.6c-1.2-1.6-2.3-3.2-3.5-4.8
		c-0.2-0.3-0.4-0.5-0.5-0.8c-1.2-1.7-2.3-3.4-3.5-5.1c-0.5-0.8-1-1.5-1.5-2.3c-1.9-2.9-3.7-5.8-5.4-8.8c-0.5-1-1.1-1.9-1.6-2.9
		c-0.2-0.4-0.4-0.8-0.7-1.2c-23.3-42.3-32.2-89.9-26-137.1c0.1-0.9,0.2-1.8,0.4-2.8c0.2-1.4,0.4-2.8,0.6-4.2
		c0.2-1.3,0.4-2.5,0.7-3.8c0.7-3.8,1.5-7.6,2.3-11.4l0,0L6.7,166.1c-4.4-2.4-4.9-8.8-0.8-11.4l6.5-4.2l28.3-18.3l0.1-0.1L90,100.3
		c4.1-2.6,9.7,0.4,10.1,5.4l3,40.8l0,0.2l4.3,58.6l0.3,4c0.4,5.1-4.8,8.4-9.2,6l-15-8l-0.4-0.2l0,0c-0.6,5.3-1,10.6-1.2,16.1
		c-0.7,30.8,7.2,59.8,21.5,84.7c0,0,0,0,0,0.1c1.9,3.4,4,6.7,6.2,10c0.4,0.6,0.8,1.1,1.2,1.7c0.2,0.3,0.4,0.6,0.6,0.9
		c11,15.9,24.9,30,41.7,41.6c15.8,10.8,29.6,17.5,47,22.2c3.6,0.9,6.7,4.5,2.5,7.3l-18.3,12.9C179.5,409,175.9,420.3,184.8,427.8z"
		/>
	<path class="st0" d="M470.1,227v0.5c0,0.9,0,1.8,0,2.8c0,0.7,0,1.5,0,2.2c0,1,0,2-0.1,3c-0.2,5.6-0.6,11.2-1.2,16.7
		c-0.1,0.9-0.2,1.8-0.3,2.8c-0.2,1.8-0.5,3.7-0.7,5.5c0,0.1,0,0.2-0.1,0.3c-0.3,1.8-0.5,3.5-0.9,5.3c-0.4,2-0.7,4-1.1,6
		c-0.3,1.3-0.5,2.6-0.8,3.9c-0.1,0.5-0.2,1-0.3,1.5c0,0,0,0,0,0c-2.8,12.3-6.6,24.3-11.4,35.9c-0.4,1-0.8,2-1.3,3
		c-0.8,1.8-1.6,3.6-2.4,5.4c-0.1,0.3-0.3,0.6-0.4,0.8c-0.9,1.9-1.8,3.7-2.7,5.6c-0.4,0.8-0.8,1.6-1.3,2.4c-1.6,3.1-3.2,6.1-5,9.1
		c-25,43.3-62.7,76.3-108.1,95.1c-0.9,0.4-1.7,0.7-2.6,1.1c-1.3,0.5-2.6,1-4,1.5c-1.2,0.5-2.4,0.9-3.6,1.3c-3.6,1.3-7.3,2.5-11,3.7
		v0l0.6,21.4c0.1,4-3.2,7.1-6.8,7c-0.1,0-0.2,0-0.3,0c-0.1,0-0.2,0-0.3,0c-0.8-0.1-1.5-0.3-2.2-0.7l-6.8-3.5l-29.8-15.2l-52.6-26.9
		c-4.3-2.3-4.5-8.6-0.3-11.5l33.8-23l49.6-33.7l2.6-1.8c1-0.7,2.1-1.1,3.2-1.1c0.1,0,0.3,0,0.4,0c0.2,0,0.4,0,0.6,0
		c3,0.2,5.6,2.6,5.7,6.1l0.5,16.3l0,1.1v0.1c32.1-13.5,60.1-37.4,78.5-70.1c8.5-15.1,14.3-31,17.6-47.1c0-0.1,0.1-0.3,0.1-0.4
		c0.8-3.6,1.4-7.2,1.9-10.8c0.1-0.5,0.1-0.9,0.2-1.3c0.1-0.6,0.2-1.3,0.2-1.9c0-0.2,0-0.3,0.1-0.5c0.1-0.8,0.2-1.5,0.2-2.3
		c0.2-1.5,0.3-3,0.4-4.4c1.5-19,0.4-34.4-4.3-51.8c-1-3.6,0.6-8,5.1-5.8l20.3,9.3c6.3,2.1,17.9-0.5,20-11.9l1.3-19.6
		c0.1-3.8,5.2-4.7,6.7-1.3c0.1,0.2,0.2,0.5,0.3,0.7c4.2,10.7,7.3,20.8,9.4,31.4c0,0,0,0,0,0.1c0.3,1.4,0.6,2.9,0.8,4.4c0,0,0,0,0,0
		c0,0,0,0.1,0,0.1C469.2,203.9,470.1,214.7,470.1,227z"/>
	<path class="st0" d="M432.1,156.3c0.2,4.9-5.2,8.2-9.8,6l-36.8-17.8l-0.2-0.1l-51.7-25l-4.9-2.4c-4.6-2.2-4.8-8.3-0.6-11l14.9-9.2
		c-4.3-3.2-8.8-6.3-13.5-9.1c-33.3-20.2-70.8-27.1-106.5-22.2c-0.7,0.1-1.3,0.2-2,0.3c-0.4,0-0.7,0.1-1.1,0.2
		c-9.4,1.4-18.6,3.7-27.8,6.8c-0.7,0.3-1.5,0.5-2.2,0.8c-0.4,0.1-0.8,0.3-1.2,0.4c-8.3,3-16.5,6.8-24.4,11.3
		c-9.7,5.5-18,11.1-25.5,17.5c-2.8,2.4-5.4,4.8-8,7.5c-2.6,1.8-6.1,1.9-6.4-2.5l-2.1-22.3C121,79,113,70.2,102,74.1l-17.6,8.6
		c-3.4,1.9-6.9-2.3-4.4-5.3c12.2-14.6,23.3-25.8,36.6-35.5c1.5-1,3-2.1,4.6-3.1c0.5-0.3,1-0.6,1.5-1c32.5-21.1,69.9-33.4,109.1-35.6
		c1-0.1,2-0.1,3-0.2c0.4,0,0.7,0,1.1,0c0.5,0,1,0,1.5,0c0.2,0,0.4,0,0.6,0c0.1,0,0.2,0,0.3,0c0.5,0,1.1,0,1.6,0c0.3,0,0.5,0,0.8,0
		c0.5,0,0.9,0,1.4,0c0.8,0,1.7,0,2.5,0c1.4,0,2.7,0,4.1,0h0.3c0.8,0,1.5,0,2.3,0c1.3,0,2.5,0.1,3.8,0.1c0.9,0,1.7,0.1,2.5,0.1
		c0.2,0,0.4,0,0.5,0c1,0.1,1.9,0.1,2.9,0.2c0.8,0,1.6,0.1,2.4,0.2c0.9,0.1,1.8,0.1,2.7,0.2c0.9,0.1,1.9,0.2,2.8,0.3
		c0.1,0,0.2,0,0.3,0c1.2,0.1,2.5,0.3,3.7,0.4c1.3,0.2,2.6,0.3,3.9,0.5c0.7,0.1,1.3,0.2,2,0.3c1.9,0.3,3.8,0.6,5.6,1
		c1.3,0.2,2.7,0.5,4,0.7c0.3,0.1,0.7,0.1,1,0.2c0.8,0.2,1.7,0.3,2.5,0.5c1.5,0.3,3,0.7,4.5,1c30.3,7.1,58.7,20.3,83.7,39.2
		c0.7,0.5,1.4,1.1,2.1,1.6c5.6,4.3,11,9,16.2,13.8l0.1,0l0.4-0.2l17.7-11c4.3-2.6,10,0.1,10.2,5l0.4,7.8l1.7,33.2l0,0.2L432.1,156.3
		z"/>
</g>
</svg>
