<?xml version="1.0" encoding="utf-8"?>
<!-- Generator: Adobe Illustrator 21.0.0, SVG Export Plug-In . SVG Version: 6.00 Build 0)  -->
<svg version="1.1" id="Слой_1" xmlns="http://www.w3.org/2000/svg" xmlns:xlink="http://www.w3.org/1999/xlink" x="0px" y="0px"
	 viewBox="0 0 480 330" style="enable-background:new 0 0 480 330;" xml:space="preserve">
<style type="text/css">
	.st0{fill:#FFFFFF;}
</style>
<path class="st0" d="M408,153.5c0.7-4.3,1.2-8.7,1.2-13.2c0-41.9-32.6-75.9-72.8-75.9c-8.8,0-17.1,1.7-24.9,4.7
	C287.7,30.8,246.5,5.3,199.5,5.3C126,5.3,66.4,67.5,66.4,144.2c0,3.6,0.3,7.1,0.5,10.7c-35.6,9.3-62,42.8-62,82.8
	c0,47.2,36.7,85.5,81.9,85.5h307.2c45.2,0,81.9-38.3,81.9-85.5C476,195.4,446.6,160.4,408,153.5z M318.8,237.5l-55.6,32.1
	c-2.7,1.6-6.1-0.4-6.1-3.5v-11.8c0-2.2-1.8-4.1-4.1-4.1h-96.3c-2.2,0-4.1-1.8-4.1-4.1v-24.4c0-2.2,1.8-4.1,4.1-4.1H253
	c2.2,0,4.1-1.8,4.1-4.1v-11.8c0-3.1,3.4-5.1,6.1-3.5l55.6,32.1C321.5,232,321.5,235.9,318.8,237.5z M320.8,161.7
	c0,2.2-1.8,4.1-4.1,4.1h-96.3c-2.2,0-4.1,1.8-4.1,4.1v11.8c0,3.1-3.4,5.1-6.1,3.5L154.6,153c-2.7-1.6-2.7-5.5,0-7.1l55.6-32.1
	c2.7-1.6,6.1,0.4,6.1,3.5v11.8c0,2.2,1.8,4.1,4.1,4.1h96.3c2.2,0,4.1,1.8,4.1,4.1V161.7z"/>
</svg>
