<?xml version="1.0" encoding="utf-8"?>
<!-- Generator: Adobe Illustrator 18.1.1, SVG Export Plug-In . SVG Version: 6.00 Build 0)  -->
<svg version="1.1" id="Слой_1" xmlns="http://www.w3.org/2000/svg" xmlns:xlink="http://www.w3.org/1999/xlink" x="0px" y="0px"
	 viewBox="132.5 0 333 333" enable-background="new 132.5 0 333 333" xml:space="preserve">
<g>
	<path fill="#FFFFFF" d="M452.2,157.2c-0.4-0.6-0.9-1-1.4-1.5l-2.1-1.9L435,141.5l-76.4-68.7c-3.6-3.2-9.2-3-12.4,0.7l-13.8,15.3
		c-3.2,3.6-3,9.2,0.7,12.4l71.7,64.9l-0.6,0.4l0.6,0.4l-71.7,64.9c-3.6,3.2-3.9,8.8-0.7,12.4l13.8,15.3c3.2,3.6,8.8,3.9,12.4,0.7
		l76.4-68.7l13.8-12.4l2.1-1.9c0.5-0.4,1-1,1.4-1.5c2-2.6,3.2-5.8,3.3-9.2C455.4,163.1,454.2,159.9,452.2,157.2z"/>
	<path fill="#FFFFFF" d="M265.5,88.8l-13.8-15.3c-3.2-3.6-8.8-3.9-12.4-0.7L163,141.5l-13.8,12.4l-2.1,1.9c-0.5,0.4-1,1-1.4,1.5
		c-2,2.6-3.2,5.8-3.3,9.2c0.1,3.4,1.3,6.6,3.3,9.2c0.4,0.6,0.9,1,1.4,1.5l2.1,1.9l13.8,12.4l76.4,68.7c3.6,3.2,9.2,3,12.4-0.7
		l13.8-15.3c3.2-3.6,3-9.2-0.7-12.4l-71.7-64.9l0.6-0.4l-0.6-0.4l71.7-64.9C268.4,97.9,268.8,92.3,265.5,88.8z"/>
</g>
</svg>
