<?xml version="1.0" encoding="utf-8"?>
<!-- Generator: Adobe Illustrator 18.1.1, SVG Export Plug-In . SVG Version: 6.00 Build 0)  -->
<svg version="1.1" id="Слой_1" xmlns="http://www.w3.org/2000/svg" xmlns:xlink="http://www.w3.org/1999/xlink" x="0px" y="0px"
	 viewBox="0 209.3 595.3 386" enable-background="new 0 209.3 595.3 386" xml:space="preserve">
<g>
	<path fill="#FFFFFF" d="M571.5,385.7c-0.7-1.1-1.6-1.8-2.5-2.7l-3.8-3.4l-24.5-22L404.2,234.8c-6.4-5.7-16.4-5.4-22.2,1.3
		l-24.7,27.4c-5.7,6.4-5.4,16.4,1.3,22.2l128.2,116l-1.1,0.7l1.1,0.7L358.6,519c-6.4,5.7-7,15.7-1.3,22.2l24.7,27.4
		c5.7,6.4,15.7,7,22.2,1.3L540.8,447l24.7-22.2l3.8-3.4c0.9-0.7,1.8-1.8,2.5-2.7c3.6-4.6,5.7-10.4,5.9-16.4
		C577.2,396.2,575.1,390.5,571.5,385.7z"/>
	<path fill="#FFFFFF" d="M237.8,263.4L213.1,236c-5.7-6.4-15.7-7-22.2-1.3L54.5,357.6l-24.7,22.2l-3.8,3.4c-0.9,0.7-1.8,1.8-2.5,2.7
		c-3.6,4.6-5.7,10.4-5.9,16.4c0.2,6.1,2.3,11.8,5.9,16.4c0.7,1.1,1.6,1.8,2.5,2.7l3.8,3.4L54.5,447l136.6,122.8
		c6.4,5.7,16.4,5.4,22.2-1.3l24.7-27.4c5.7-6.4,5.4-16.4-1.3-22.2L108.5,403l1.1-0.7l-1.1-0.7l128.2-116
		C242.9,279.6,243.7,269.6,237.8,263.4z"/>
</g>
</svg>
