<?xml version="1.0" encoding="utf-8"?>
<!-- Generator: Adobe Illustrator 18.1.1, SVG Export Plug-In . SVG Version: 6.00 Build 0)  -->
<svg version="1.1" id="Слой_1" xmlns="http://www.w3.org/2000/svg" xmlns:xlink="http://www.w3.org/1999/xlink" x="0px" y="0px"
	 viewBox="154.5 0 333 333" enable-background="new 154.5 0 333 333" xml:space="preserve">
<g>
	<path fill="#FFFFFF" d="M474.1,80.7c-18.7,1.1-31.3,44.3-41.8,69c2.9,2,4.7,5.8,5.3,8.6c0.6,2.4,0.2,4.9-1.2,7
		c-2.9,4.6-9.3,11.3-13.1,13.8l-32.9,27.2c-10.9,8-21.5,13.8-25.7,11.2c1.8-1.9,10.3-7.6,19-14.3l32.7-27.9
		c3.8-2.5,11.8-8.6,14.2-12.5c2.3-3.9-0.7-8-4.7-10.2c-1.9-1-3.9-1.7-6.1-2.2c-6.5-1.4-13.3-0.6-19.4,2.1
		c-17.3,7.4-32.2,21.3-48.3,29.8c-7.6,4-19.7,12.5-26.5,14.4c-9.1,2.5-18,1.8-26.1,0.9c-16.3-1.6-35.5-2.3-55.9-1
		c-18.8,1.2-31.7,8.1-48,22c-11.6,9.9-16.1,21.4-20.3,31.1c-2.5,5.8-4.1,10.8-6.4,18.5c-3.8,13.4-3.3,17.4-4.7,29.2
		c-1.3,11.2-0.6,28.6-1.5,35.5l72.8-0.1c4.7-12.9,3.4-28.8,25.2-41.4c20.1-11.5,103.8-22.7,124.2-33.6c10.7-5.6,26.6-23.4,34.8-32.1
		c22.5-24,33.7-34.1,40-57.7C475.7,108.9,486.1,80,474.1,80.7z"/>
	<path fill="#FFFFFF" d="M381.5,140.6c0.3,0.2,0.6,0.3,0.8,0.4C382.2,141,381.9,140.8,381.5,140.6z"/>
	<path fill="#FFFFFF" d="M395.8,2.7c-1.7-0.4-3.3-0.3-4.9,0.3C391.4,2.9,393.3,2.3,395.8,2.7z"/>
	<path fill="#FFFFFF" d="M430.6,86.2c0.7,0.7,1.5,1.3,2.5,1.7C432.9,87.7,431.8,87.4,430.6,86.2z"/>
	<path fill="#FFFFFF" d="M180.4,124.7c13.4,1.8,31.7,6.2,31.7,6.2c-17.7,2.2-30.8-4.5-31.2-4.8c9,9.8,23.3,10.6,24,10.6
		c-14.1,1.2-22.2-6.8-22.5-7.2c9.2,13.2,31.5,10,32.4,9.9c-17.9,6-28.9-2.8-29.7-3.5c12,13.9,34.1,6.2,34.1,6.2
		c-22.5,11-32.8-2.9-33.2-3.4c0.2,0.4,4.3,7.7,15.2,10.4c11,2.7,44.1-14.1,45-14.6c-0.7,0.5-24.6,15-37.5,16.7
		c-13.2,1.7-19.7-6.5-19.7-6.5s0.5,8,22.4,10.1c16.6,1.6,35.2-11.7,43.1-18.1c-2.3,2.1-5.8,5.2-11.1,10
		c-18.7,16.8-40.4,9.5-40.4,9.5s1.7,4,26.5,2.4c24.8-1.6,40.2-25.6,40.2-25.6s-0.1,3.3-12.3,15.4c-12.2,12.1-42.8,14.4-42.8,14.4
		c31.2,7,56-21.9,56-21.9s-1.4,3.5-15.6,14.4c-13.7,10.6-28.3,10.3-29.5,10.2c0.9,0.1,11.4,0.9,26.6-4.3
		c12.8-4.4,32.5-23.1,39.5-30.1c-6.3,6.4-22.4,22.2-31.9,28.3c-11.7,7.5-25.2,8.3-26,8.4c13.4,1.2,24.1-5.1,24.1-5.1
		c-5.8,6.7-19.9,6.2-19.9,6.2c26.2,6.7,54.4-21.9,54.4-21.9c-14.7,22.6-36.2,24-37.5,24c0.7,0,6,0.2,11,0.2c5.3,0.1,9.4-2.1,9.4-2.1
		c1.7,1.3,4.9,0.2,4.9,0.2c20.8-6.2,37.6-40.6,38.8-43.3c-13.2,31-29.1,40.2-33.7,42.4c25.4-10.7,38.1-42.8,38.1-42.8s0.5,3-10,19.6
		c-9.2,14.6-23.4,21.4-26.7,22.9c16.6-6.7,22.1-16,29.4-24.5c5.5-6.4,15-22.5,19.5-30.5c-2.1,3.8-5.6,10.7-11.8,23
		c-12.8,25.4-35.4,32.4-35.4,32.4c6.3,1.3,13.1-6,13.1-6c2.3,3.1,11.2-2.2,11.2-2.2s5.7,5.9,29.7-16.9s29.4-52.1,29.4-52.1
		c-2.6,36.9-35.3,59.4-35.3,59.4s7.1-1.3,27.1-19.2s25.2-38.9,25.2-38.9c-1.1,23.1-23.8,40.6-26.3,42.5c16.8-11,25.1-26.7,29.1-39.2
		c-0.5,2-0.9,4.1-1.5,6.5c-5.8,24.4-23,31.6-24.6,32.3c20.8-6.2,31.2-36.4,35.2-51.5c0.2,6.7,3.6,14,7.7,20.3
		c-2.2,7.8-12.3,10.6-13,10.8c0.5-0.1,8-1.5,12-6.6c0.6-0.7,1.1-1.9,1.6-3.2c1.8,2.7,3.7,5.2,5.5,7.3c1,1.2,2,2.3,2.6,3.4
		c-1,6.3-4.8,9.6-5.8,10.5c3.8-2.7,5.7-6.1,6.5-9.5c3.8,5.8,2.2,7.7,1.4,12.6c-0.9,5.7,2.3,8.7,2.7,9.1c-0.4-0.5-3.1-3.9-0.6-12
		c1.1-3.4-0.7-7.8-3.2-12.4l0,0c0.4-4.9-1-9.7-1.8-13.5c-0.2-0.8-0.3-1.9-0.4-2.9c0.3-0.5,0.7-0.9,0.9-1.4
		c3.8-5.8,4.7-20.5,4.8-21.3c0.1,9.1,1.3,15.5,3.1,20.2c-3.4,5-6.3,8.1-6.6,8.5c0.4-0.4,3.4-2.9,6.9-7.8c3.4,8.4,8.4,10.5,10.9,10.9
		c-1.8-0.7-5.1-3-9.4-11.3c-0.2-0.4-0.4-0.7-0.5-1c1.5-2.2,3.2-4.8,4.8-7.7c0.1,0.1,0.2,0.2,0.3,0.3c-0.1-0.1-0.2-0.2-0.3-0.3
		c1-2,2.1-4,3-6.4c0.3-0.7,0.5-1.3,0.7-2c0.8,2.2,1.7,3.4,2,3.6c-0.8-1.3-1.4-2.6-1.8-4l0,0c4.3-12.2,5-29.8,5.1-37
		c-11.1,10.6-26.2,23.4-44.4,35.8c0,0.3-0.1,0.7-0.1,1.3c0-0.6,0.1-0.9,0.1-1.3c-22.3,15.2-49.5,30-80.4,39.9
		c-11.7,26.7-43.6,40.5-48.5,42.6c1.9-0.8,8.1-4.1,21-15.6c12.6-11.3,16.1-20.5,16.9-23.8c-3.1,0.8-6.3,1.7-9.4,2.4
		c-6.3,8.5-18.6,15.5-19.7,16.1c8.1-6.1,11-12.2,12-14.4c-19.6,4-40.5,5.8-62.4,4.4c1.8,0,24.3-0.4,55.9-7.3c-2-0.6-8.5-2.7-13-9.8
		c0,0,10.5,8,23.3,7.4c9.3-2.3,19.1-5.1,29.3-8.8c-3.5-0.3-13.2-2.2-26-14.1c0.9,0.7,19.3,13.3,28.6,13.3c0.2,0,0,0,0.2,0
		c11-3.9,22.5-8.8,34-14.5c-4-1.3-13.1-4.9-17.6-11.5c-4.4-6.5-10.3-12.3-12.8-14.8c3.4,3,12,10.9,15.6,13.5
		c3.4,2.4,15.9,6.9,22.1,9.1c25.7-13.8,51.5-32.8,73.5-58.8c-2-1.2-4.3-1.5-4.3-1.5s-15.8-3.9-24-17.2c-4.5-7.3-9.4-9.4-13.1-9.9
		c5.7,1.3,11.4,8,13.9,16.2c3.3,10.5,9.8,12.7,9.8,12.7c-14.7-4.8-18.6-19.1-18.9-20.4c2,14.4,12.1,20.4,16.6,22.4
		c-21-8.6-31.3-26.7-32-27.8c0.8,2,1.9,3.8,3.1,5.6c7.4,21.8,30.1,27.3,30.1,27.3c-6.5,0.8-21.7-2.5-31-13.2
		c-9.4-10.7-19-8.8-25.4-8.4c-1,0-2.2-0.1-3.3-0.3c-0.7-9.4,0.9-16.9,0.9-16.9s-2.3,6.1-1.6,16.8c-5.5-1.3-11.4-5.1-11.8-5.2
		c0.3,0.3,5.7,4.9,11.9,6.5c0.3,3.4,0.9,7.1,2,11.2c-1.6-0.1-3.2-0.1-4.8,0.1c-17.1,1.9-25.3-13.8-25.7-14.7
		c0.3,0.8,5.1,15.2,25.3,16.6c2.1,0.1,4,0.5,6,0.9c6,19.1,30.4,25.8,30.4,25.8c-10.5-0.4-34.5-18.1-50.1-22.8
		c-15.1-4.7-45,1.7-46.8,2.1c0.7-0.1,6.5-0.9,16.3,1.2c9.7,2.2,31.4,14.1,34.7,16c-12.8-6.5-33-13.5-43.7-14
		c-10.8-0.6-22.1,2.7-22.1,2.7c19.1-0.5,51.1,16.3,52,16.7c-0.9-0.4-38.7-14.9-55.2-15.1c-16.4-0.2-37.4,6.6-38.1,6.8
		c10.3-1.6,29.7,0.1,29.7,0.1c34.8,3.3,56.4,24.4,58.1,26.1C304.4,57,259.1,53.1,243,53.5c-15.9,0.4-27.2,11-27.6,11.3
		c26.3-7.7,82.5,20.5,89.3,24c-3.6-1.8-21.1-10-34.2-13.7c-14.8-4.1-35.9-10-51-8c-15.1,2.1-17.8,10.4-17.8,10.4
		c5.9-2.5,16.2-2,16.2-2c33.8,1.7,67.5,31.9,67.5,31.9s-30-20.4-48.8-24.8c-18.5-4.2-36.6,2.2-37.1,2.3c31.2-5.2,55,17.9,64.6,29.4
		c-12.5-12.9-38.4-22.8-50-24.6c-13.5-2.1-22.6,2.8-22.6,2.8c19-2.2,40.6,13.5,40.6,13.5c-20.2-9.8-40.9-5.1-41.9-4.9
		c36.1-2.2,61.4,20.9,61.9,21.4c-0.7-0.4-22.7-14.7-36.4-16.7c-13.7-2.1-30.9,3.3-31.4,3.4c31.2-6.3,50.9,11,51.5,11.6
		c-0.5-0.2-7.9-3.6-17.3-6.5c-9.5-2.9-20-1.8-20.6-1.7c13.9,0.3,25.8,7.2,31.4,11.1c-2.4-1.4-6.4-3.3-13-5.6
		c-14.9-5.3-31.5-1.9-31.5-1.9c0.2,0,0.4,0,0.6,0c11.6-0.3,17.4,5.7,17.4,5.7c-9.4-2.4-20.2-1.1-20.9-1c9.9-0.6,20.6,4.4,23.3,5.8
		c-1-0.4-3.5-1.1-9.2-2C187.4,123.6,180.4,124.7,180.4,124.7z M433.9,75.8c-1.5-7.7,2.2-15.8,2.2-15.8
		C436.5,65.3,435.6,70.7,433.9,75.8z M433.3,63.6c-1.1,5.5-0.6,9.8,0.4,12.8c-0.7,2.2-1.7,4.4-2.7,6.5c-0.4,0.7-0.7,1.5-1.1,2.2
		c-1.1-1.9-1.6-4.3-1.8-6.9c0.7-1.1,1.3-2.3,2.2-3.7c4.6-8.7,3-27.4,2.9-28.1C433.3,46.7,435.6,52.3,433.3,63.6z M429.2,51.3
		c0,0,2.3,11.3,2,18.1c-0.2,2.6-1.5,5.6-3,8.4c-0.2-4.4,0.6-8.9,1.2-10.8C430.6,63.1,429.2,51.3,429.2,51.3z M429.8,85.3
		c-1.4,2.7-3,5.2-4.5,7.5c-0.9-2.4-1.5-5.2-1.7-8.1c0.7-0.8,2-2.3,3.6-4.8C427.7,82.4,428.8,84.1,429.8,85.3z M426.6,57.2
		c0,0,0.8,1.2-0.1,14.9c-0.2,3,0,5.5,0.5,7.5c-1.3,2.1-2.6,3.8-3.5,5C422.5,71.9,426.6,57.2,426.6,57.2z M416.4,77
		c0,0,0.9,2.2,1.6,10c0.3,3.1-1,6.1-2.6,8.6C415,87.8,416.4,77,416.4,77z M415.3,103.4c1,3.1,1.5,5.9,1.5,8.3
		c-2-3.4-4.2-6.8-6.2-10.2c0.7-0.5,1.9-1.3,3.3-2.9C414.3,100.3,414.7,101.9,415.3,103.4z M412.3,85.8c0,3.3,0.3,7.3,1.4,12.2
		c-1.2,1.5-2.4,2.7-3.2,3.5c-0.3-0.5-0.6-0.9-0.7-1.4C410.8,95.5,411.7,90.2,412.3,85.8z M409.1,74.4c-1.5,5.6-0.9,14.9-0.8,22.5
		c-0.8-1.8-1.5-3.6-1.8-5.1C405.2,85.3,407.4,78.5,409.1,74.4z M388.5,12c10.7,15.8,32,25.7,32,25.7C399,33.2,390.8,17.4,388.5,12z
		 M359.1,18.4c1.6,0.4,3.3,0.7,5,0.5c8.3-0.7,21.7,8.7,29.6,16s16.7,9.3,16.7,9.3s-3.2,3-11.9-4.3c-8.7-7.3-22.7-9.6-22.7-9.6
		c10.3,3.2,16.3,12.4,18.7,17.1c-4.5-5.9-19.4-16.4-33-17.8C360.1,25.8,359.4,22,359.1,18.4z M373,45.9c-5-3.6-8.3-8.3-10.5-13.3
		c17.2,4.6,30.3,19.8,30.3,19.8C383.8,53.1,373,45.9,373,45.9z"/>
	<path fill="#FFFFFF" d="M436.9,106.3c-0.1,0-0.7,0-1.4-0.2C436.3,106.3,436.8,106.3,436.9,106.3z"/>
	<path fill="#FFFFFF" d="M394.9,76.1c0-0.5,0-0.7,0-0.7C394.9,75.6,394.9,75.8,394.9,76.1L394.9,76.1z"/>
	<path fill="#FFFFFF" d="M439.3,36.9c0,0,0,1.2,0,3.4c14.3-13.7,22.4-23.8,22.6-25.1c1.1-4.9-8.4-5.5-8.4-5.5
		c-5.1,7.8-10.7,15-16.5,21.7C438.8,32.4,440.2,34.1,439.3,36.9z"/>
</g>
</svg>
