<?xml version="1.0" encoding="utf-8"?>
<!-- Generator: Adobe Illustrator 18.1.1, SVG Export Plug-In . SVG Version: 6.00 Build 0)  -->
<svg version="1.1" id="Слой_1" xmlns="http://www.w3.org/2000/svg" xmlns:xlink="http://www.w3.org/1999/xlink" x="0px" y="0px"
	 viewBox="0 0 975 333" enable-background="new 0 0 975 333" xml:space="preserve">
<g>
	<path fill="#FFFFFF" d="M46.6,236.5V19.9h41.3v216.6c0,50-11.6,72.2-61.9,72.2H5.3v-30.9C39.2,277.8,46.6,271.2,46.6,236.5z"/>
	<path fill="#FFFFFF" d="M244.8,164.3v92.8c0,21.1,1.3,36.9,5.3,51.6H209l-5.5-30.9c-8.2,16.3-17.4,33.8-41.3,33.8
		S121,287.1,121,263.1c0-53.7,42.7-68.3,82.5-84v-14.8c0-18.2-3.4-32.9-20.6-32.9c-16.9,0-20.6,14.8-20.6,32.9H121
		c0.5-39,22.7-64.8,61.9-64.8C222,99.5,244.8,126,244.8,164.3z M162.3,252.1c0,15.5,5.8,25.6,20.6,25.6c10,0,16.3-9.3,20.6-15.1v-57
		C187.2,216.5,162.3,227.2,162.3,252.1z"/>
	<path fill="#FFFFFF" d="M265.5,102.4h41.3l25.8,154.7l25.8-154.7h41.3l-46.1,206.3h-41.6L265.5,102.4z"/>
	<path fill="#FFFFFF" d="M541.9,164.3v92.8c0,21.1,1.3,36.9,5.3,51.6h-41.1l-5.5-30.9c-8.2,16.3-17.4,33.8-41.3,33.8
		s-41.3-24.5-41.3-48.5c0-53.7,42.7-68.3,82.5-84v-14.8c0-18.2-3.4-32.9-20.6-32.9c-16.9,0-20.6,14.8-20.6,32.9h-41.3
		c0.5-39,22.7-64.8,61.9-64.8S541.9,126,541.9,164.3z M459.4,252.1c0,15.5,5.8,25.6,20.6,25.6c10,0,16.3-9.3,20.6-15.1v-57
		C484.3,216.5,459.4,227.2,459.4,252.1z"/>
	<path fill="#FFFFFF" d="M574.8,308.7V31.4h24.5V289h77.5v19.7H574.8z"/>
	<path fill="#FFFFFF" d="M705.3,71.5V42.7h24.2v28.8H705.3z M705.3,308.7v-193h24.2v193H705.3z"/>
	<path fill="#FFFFFF" d="M784.7,263.1V129.2h-26.3v-13.5h26.3V47.2h24.2v68.5h30.9v13.5h-30.9V262c0,19.5,0.6,31.6,16.4,31.6
		c4.7,0,9.5-0.3,14.2-1.3v16.6c-8.2,2.1-14.8,2.7-20.9,2.7C787.4,311.6,784.7,287.8,784.7,263.1z"/>
	<path fill="#FFFFFF" d="M867.7,219.8l0.2-26.9c0.5-68.8,22.6-81.5,53.2-81.5c35,0,48.7,24.3,48.7,76.4c0,7.9,0,12.1-0.3,19.8H892
		V237c0,52,10.8,59.8,28.8,59.8c12.4,0,25.3-9,25.6-45.9v-1.3H969v1c-2.9,33.2-11.8,62.5-47.9,62.5
		C881.7,313.1,867,292.6,867.7,219.8z M892.2,195.6h53.5v-0.3c-0.5-29.5,3.2-67.7-23.5-67.7c-29.8,0-30,23.4-30,67.5V195.6z"/>
</g>
</svg>
