<?xml version="1.0" encoding="utf-8"?>
<!-- Generator: Adobe Illustrator 18.1.1, SVG Export Plug-In . SVG Version: 6.00 Build 0)  -->
<svg version="1.1" id="Слой_1" xmlns="http://www.w3.org/2000/svg" xmlns:xlink="http://www.w3.org/1999/xlink" x="0px" y="0px"
	 viewBox="181.5 0 333 333" enable-background="new 181.5 0 333 333" xml:space="preserve">
<path fill="#FFFFFF" d="M463.7,50.8C433,20.1,392.2,3.1,348.8,2.8h-1.7c-43.7,0.3-84.7,17.5-115.4,48.5
	c-30.7,31.1-47.6,72.2-47.4,116c0.2,43.7,17.4,84.7,48.5,115.5c30.9,30.5,71.7,47.3,115.2,47.3c0.3,0,0.5,0,0.8,0
	c43.7-0.2,84.7-17.4,115.5-48.5c30.7-31.1,47.5-72.3,47.3-116C511.4,122.3,494.4,81.5,463.7,50.8z M312.7,25.6
	c-16.7,17.7-30,38.1-39.4,60.2c-11.2-4.6-22.1-10.3-32.5-17.1C259.7,48,284.6,32.7,312.7,25.6z M229.2,83.1
	c12,8,24.6,14.6,37.6,19.9c-4.9,15-8,30.7-9.4,46.8c-0.2,2.5-0.4,4.9-0.5,7.4H203C204.8,129.8,214.2,104.4,229.2,83.1z M229,250
	c-15.4-21.8-24.3-47.3-26-74.3h53.8c0.7,18.6,3.9,36.9,9.5,54.5C253.4,235.4,240.9,242.1,229,250z M245.8,269.8
	c-1.8-1.8-3.5-3.6-5.2-5.4c10.3-6.7,21-12.3,32.1-16.9c8.1,19.2,19.1,37.2,32.9,53.6c1.7,2,3.4,4,5.2,6
	C286.5,300.6,264.1,287.9,245.8,269.8z M338.8,308.7c-6.8-6-13.3-12.6-19.1-19.6c-12.4-14.7-22.3-30.8-29.6-48
	c15.9-4.9,32.3-7.7,48.8-8.5V308.7z M338.8,214.2c-18.6,0.8-37.2,4-55.2,9.7c-4.9-15.5-7.7-31.7-8.4-48.2h63.6V214.2z M338.8,157.3
	h-63.5c0.1-2,0.2-3.9,0.4-5.9c1.2-14.5,4.1-28.6,8.4-42.2c17.8,5.5,36.2,8.7,54.7,9.5V157.3z M338.8,100.3
	c-16.3-0.8-32.5-3.5-48.2-8.3c10.9-25,27.2-47.6,48.2-66.1V100.3z M466.8,83.1c15,21.3,24.4,46.7,26.2,74.2h-53.8
	c-0.9-18.6-4.2-36.8-9.9-54.3C442.2,97.7,454.8,91.1,466.8,83.1z M455.2,68.7c-10.4,6.8-21.3,12.5-32.5,17.1
	c-8-18.7-18.8-36.2-32.3-52.2c-2.3-2.7-4.7-5.4-7.1-8C411.3,32.7,436.2,48,455.2,68.7z M357.2,25.9c6.8,6,13.3,12.6,19.1,19.6
	c12,14.3,21.8,29.9,29,46.5c-15.7,4.8-31.9,7.6-48.2,8.3V25.9z M357.2,118.8c18.5-0.8,36.9-4,54.7-9.5c5,15.5,8,31.6,8.8,48h-63.5
	V118.8z M357.2,175.7h63.6c-0.1,2.5-0.3,5-0.5,7.5c-1.2,14-3.9,27.6-7.9,40.7c-18-5.6-36.5-8.9-55.2-9.6V175.7z M357.2,308.7v-76.1
	c16.5,0.8,32.9,3.6,48.8,8.5C395.2,266.8,378.6,289.8,357.2,308.7z M451.3,268.7c-18.5,18.7-41.2,31.8-66,38.3
	c16.2-17.6,29-37.7,38.1-59.5c11,4.6,21.8,10.2,32,16.9C454,265.8,452.7,267.3,451.3,268.7z M467,249.9
	c-11.9-7.9-24.4-14.5-37.3-19.8c4.6-14.6,7.6-29.8,8.9-45.4c0.3-3,0.4-6,0.6-9.1H493C491.3,202.6,482.3,228.1,467,249.9z"/>
</svg>
