<?xml version="1.0" encoding="utf-8"?>
<!-- Generator: Adobe Illustrator 18.1.1, SVG Export Plug-In . SVG Version: 6.00 Build 0)  -->
<svg version="1.1" id="Слой_1" xmlns="http://www.w3.org/2000/svg" xmlns:xlink="http://www.w3.org/1999/xlink" x="0px" y="0px"
	 viewBox="164 0 333 333" enable-background="new 164 0 333 333" xml:space="preserve">
<g>
	<path fill="#FFFFFF" d="M330.5,213.5c78.7,0,142.5-34.2,142.5-76.4c0-6.3,1-12.3-1.7-18c-15.1,33.4-73.7,58.4-140.7,58.4
		s-125.6-24.7-140.7-58.4c-2.5,5.8-1.7,11.8-1.7,18C188,179.3,251.8,213.5,330.5,213.5z"/>
	<path fill="#FFFFFF" d="M330.5,235.8c-67.1,0-125.6-24.7-140.7-58.4c-2.5,5.7-1.7,11.7-1.7,18c0,42.1,63.7,76.4,142.5,76.4
		S473,237.6,473,195.4c0-6.3,1-12.3-1.7-18C456.1,211,397.6,235.8,330.5,235.8z"/>
	<path fill="#FFFFFF" d="M330.5,155.2c67.1,0,123.4-24.7,138.4-58.4c2.5-5.7,4-11.7,4-18c0-42.1-63.7-76.4-142.5-76.4
		S187.9,36.6,187.9,78.8c0,6.3,1.4,12.3,4,18C207.1,130.2,263.3,155.2,330.5,155.2z"/>
	<path fill="#FFFFFF" d="M330.5,294.5c-67.1,0-125.6-24.7-140.7-58.4c-2.5,5.7-1.7,11.8-1.7,18c0,42.1,63.7,76.4,142.5,76.4
		S473,296.4,473,254.1c0-6.3,1-12.3-1.7-18C456.1,269.7,397.6,294.5,330.5,294.5z"/>
</g>
</svg>
