<?xml version="1.0" encoding="utf-8"?>
<!-- Generator: Adobe Illustrator 18.1.1, SVG Export Plug-In . SVG Version: 6.00 Build 0)  -->
<svg version="1.1" id="Слой_1" xmlns="http://www.w3.org/2000/svg" xmlns:xlink="http://www.w3.org/1999/xlink" x="0px" y="0px"
	 viewBox="107 0.5 332 332" enable-background="new 107 0.5 332 332" xml:space="preserve">
<path fill="#FFFFFF" d="M438.4,164c0-0.6,0-1.1-0.1-1.7c0-0.6,0-1.1,0-1.7l0-0.2c-1.5-39.8-17.3-77.7-44.5-106.8
	c-2.4-2.7-4.9-5.1-7.4-7.4c-14.4-13.6-30.7-24.3-48.6-31.9l-4.7-1.9c-17.3-6.8-35.8-10.6-54.9-11.2C276.3,1,274.6,1,272.9,1
	c-0.9,0-1.8,0-2.7,0.1c-0.8,0-1.5,0-2.3,0l-0.2,0c-19.9,0.6-39.2,4.7-57.2,12l-4.8,2.1c-16.9,7.5-32.4,17.8-46.2,30.7l-0.1,0.1
	c-0.6,0.6-1.2,1.2-1.9,1.9c-1.9,1.9-3.9,3.9-5.8,5.9c-13.1,14.1-23.6,30.2-31.1,48c-8,18.8-12.4,38.5-13.1,58.5
	c-0.1,1.5-0.1,2.9-0.1,4.2v6.1l0,0.1c1,40.9,17,79.7,45,109.3c2.4,2.6,4.9,5,7.4,7.4c29.4,27.5,67.7,43.3,107.8,44.5
	c1.8,0.1,3.5,0.1,5.3,0.1c0.9,0,1.8,0,2.7-0.1c0.8,0,1.5,0,2.3,0l0.2,0c40.4-1.3,78.8-17.2,108.1-44.8c2.6-2.4,5-4.9,7.4-7.4
	c27.9-29.6,43.8-68.4,44.8-109.2l0-4.6C438.5,165.5,438.5,164.8,438.4,164z M273,246.2c-43.9,0-79.7-35.8-79.7-79.7
	c0-43.9,35.8-79.7,79.7-79.7c43.9,0,79.7,35.8,79.7,79.7C352.7,210.4,316.9,246.2,273,246.2z M333.1,25.3c16.5,7,31.7,17,45,29.5
	c2.3,2.2,4.7,4.5,6.9,6.9c13.1,14,23.3,30.3,30.4,47.8l-57.1,23.2c-9.3-23.4-27.9-42.1-51.3-51.4l23.3-57.2L333.1,25.3z M160.6,62
	c1.7-1.9,3.6-3.7,5.4-5.5c0.6-0.6,1.2-1.2,1.8-1.8c12.7-11.9,27.1-21.5,42.7-28.4l3.2-1.4L238,81.8c-22.9,9.5-41.1,28-50.3,51
	l-57.3-23.3c0.4-1,0.8-2,1.3-3C138.7,90,148.4,75,160.6,62z M161.2,271.9c-12.8-13.5-22.9-29.2-30-46.1l57-24.3
	c9.3,22.5,27.3,40.4,49.8,49.7l-24.3,57c-16.7-7-32.2-16.9-45.7-29.5C165.7,276.5,163.5,274.3,161.2,271.9z M384.9,271.6
	c-2.3,2.4-4.5,4.6-6.9,6.9c-14,13.2-30.3,23.5-47.9,30.6l-23.3-57.3c22.9-9.1,41.3-27.3,50.8-50l56.9,24.2
	C407.6,242.7,397.6,258.1,384.9,271.6z"/>
</svg>
