<?xml version="1.0" encoding="utf-8"?>
<!-- Generator: Adobe Illustrator 18.1.1, SVG Export Plug-In . SVG Version: 6.00 Build 0)  -->
<svg version="1.1" id="Слой_1" xmlns="http://www.w3.org/2000/svg" xmlns:xlink="http://www.w3.org/1999/xlink" x="0px" y="0px"
	 viewBox="69 0 333 333" enable-background="new 69 0 333 333" xml:space="preserve">
<g>
	<path fill="#484848" d="M389.8,80.7c-18.7,1.1-31.3,44.3-41.8,69c2.9,2,4.7,5.8,5.3,8.6c0.6,2.4,0.2,4.9-1.2,7
		c-2.9,4.6-9.3,11.3-13.1,13.8l-32.9,27.2c-10.9,8-21.5,13.8-25.7,11.2c1.8-1.9,10.3-7.6,19-14.3l32.7-27.9
		c3.8-2.5,11.8-8.6,14.2-12.5c2.3-3.9-0.7-8-4.7-10.2c-1.9-1-3.9-1.7-6.1-2.2c-6.5-1.4-13.3-0.6-19.4,2.1
		c-17.3,7.4-32.2,21.3-48.3,29.8c-7.6,4-19.7,12.5-26.5,14.4c-9.1,2.5-18,1.8-26.1,0.9c-16.3-1.6-35.5-2.3-55.9-1
		c-18.8,1.2-31.7,8.1-48,22C99.7,228.5,95.2,240,91,249.7c-2.5,5.8-4.1,10.8-6.4,18.5c-3.8,13.4-3.3,17.4-4.7,29.2
		c-1.3,11.2-0.6,28.6-1.5,35.5l72.8-0.1c4.7-12.9,3.4-28.8,25.2-41.4c20.1-11.5,103.8-22.7,124.2-33.6c10.7-5.6,26.6-23.4,34.8-32.1
		c22.5-24,33.7-34.1,40-57.7C391.4,108.9,401.8,80,389.8,80.7z"/>
</g>
<g>
	<path fill="#EF5350" d="M164.9,152.5l-8.8-46.6l43.2-12.9l3.5,11.8l-31.8,9.5l3.7,21.2c1.2-1.7,2.8-3.2,4.7-4.6
		c1.9-1.4,4.1-2.5,6.8-3.4c7.6-2.4,14.4-1.7,20.2,1.9c5.8,3.6,10,9.7,12.6,18.3c2.4,8,2.1,15.2-1,21.7c-3,6.5-8.9,11-17.5,13.6
		c-7.2,2.2-13.8,2-20-0.5c-6.1-2.5-10.2-7.4-12.2-14.7l0-0.3l12.6-4.3c1.2,3.9,3.3,6.7,6.2,8.2c3,1.5,6.3,1.7,10,0.6
		c4.2-1.3,7-3.7,8.3-7.4c1.3-3.6,1.3-7.9-0.2-12.8c-1.5-4.9-3.8-8.6-7-11c-3.2-2.4-6.9-3-11.2-1.7c-3.7,1.1-6.3,2.6-7.8,4.3
		c-1.4,1.8-2.2,3.9-2.4,6.5L164.9,152.5z"/>
	<path fill="#EF5350" d="M280.4,119.8c3.2,10.6,3.2,19.4,0.1,26.5c-3.1,7-8.8,11.7-17,14.2c-8.3,2.5-15.7,1.7-22.2-2.5
		c-6.5-4.1-11.3-11.5-14.5-22.1l-5.6-18.7c-3.2-10.6-3.2-19.4-0.1-26.5c3.1-7,8.8-11.8,17.1-14.3c8.2-2.5,15.6-1.6,22.1,2.6
		c6.5,4.2,11.3,11.5,14.5,22.1L280.4,119.8z M260.5,102.1c-2-6.7-4.6-11.3-7.8-13.9c-3.2-2.5-7-3.2-11.3-1.9
		c-4.3,1.3-7.1,3.9-8.4,7.8c-1.3,3.9-0.9,9.2,1.1,15.9l6.8,22.7c2,6.7,4.6,11.4,7.9,13.9c3.2,2.6,7,3.2,11.3,1.9
		c4.3-1.3,7.1-3.9,8.3-7.7c1.2-3.9,0.9-9.2-1.2-16L260.5,102.1z"/>
	<path fill="#EF5350" d="M344.6,96.3c3.2,10.6,3.2,19.4,0.1,26.5c-3.1,7-8.8,11.7-17,14.2c-8.3,2.5-15.7,1.7-22.2-2.5
		c-6.5-4.1-11.3-11.5-14.5-22.1l-5.6-18.7c-3.2-10.6-3.2-19.4-0.1-26.5c3.1-7,8.8-11.8,17.1-14.3c8.2-2.5,15.6-1.6,22.1,2.6
		C331,59.6,335.9,67,339,77.6L344.6,96.3z M323.8,80.6c-2-6.7-4.6-11.3-7.8-13.9c-3.2-2.5-7-3.2-11.3-1.9c-4.3,1.3-7.1,3.9-8.4,7.8
		c-1.3,3.9-0.9,9.2,1.1,15.9l6.8,22.7c2,6.7,4.6,11.4,7.9,13.9c3.2,2.6,7,3.2,11.3,1.9c4.3-1.3,7.1-3.9,8.3-7.7
		c1.2-3.9,0.9-9.2-1.2-16L323.8,80.6z"/>
</g>
</svg>
