<?xml version="1.0" encoding="utf-8"?>
<!-- Generator: Adobe Illustrator 18.1.1, SVG Export Plug-In . SVG Version: 6.00 Build 0)  -->
<svg version="1.1" id="Слой_1" xmlns="http://www.w3.org/2000/svg" xmlns:xlink="http://www.w3.org/1999/xlink" x="0px" y="0px"
	 viewBox="69 0 333 333" enable-background="new 69 0 333 333" xml:space="preserve">
<g>
	<path fill="#484848" d="M389.8,80.7c-18.7,1.1-31.3,44.3-41.8,69c2.9,2,4.7,5.8,5.3,8.6c0.6,2.4,0.2,4.9-1.2,7
		c-2.9,4.6-9.3,11.3-13.1,13.8l-32.9,27.2c-10.9,8-21.5,13.8-25.7,11.2c1.8-1.9,10.3-7.6,19-14.3l32.7-27.9
		c3.8-2.5,11.8-8.6,14.2-12.5c2.3-3.9-0.7-8-4.7-10.2c-1.9-1-3.9-1.7-6.1-2.2c-6.5-1.4-13.3-0.6-19.4,2.1
		c-17.3,7.4-32.2,21.3-48.3,29.8c-7.6,4-19.7,12.5-26.5,14.4c-9.1,2.5-18,1.8-26.1,0.9c-16.3-1.6-35.5-2.3-55.9-1
		c-18.8,1.2-31.7,8.1-48,22C99.7,228.5,95.2,240,91,249.7c-2.5,5.8-4.1,10.8-6.4,18.5c-3.8,13.4-3.3,17.4-4.7,29.2
		c-1.3,11.2-0.6,28.6-1.5,35.5l72.8-0.1c4.7-12.9,3.4-28.8,25.2-41.4c20.1-11.5,103.8-22.7,124.2-33.6c10.7-5.6,26.6-23.4,34.8-32.1
		c22.5-24,33.7-34.1,40-57.7C391.4,108.9,401.8,80,389.8,80.7z"/>
</g>
<g>
	<path fill="#EF5350" d="M209.2,145.9l-10.6,2.6l-13.2-53.9L171,98.2l-22,65.4l2.4,8.4l35.9-8.8l4.6,18.6l13.9-3.4l-4.6-18.6
		l10.6-2.6L209.2,145.9z M162.2,157.4l13.2-36.8l0.5-2.8l0.4,0l8.3,34L162.2,157.4z"/>
	<path fill="#EF5350" d="M270.2,100.8c-2.7-10.8-7.2-18.5-13.6-23c-6.4-4.5-13.8-5.7-22.2-3.6c-8.5,2.1-14.4,6.6-17.9,13.6
		c-3.5,7-3.9,15.9-1.2,26.7l4.8,19.1c2.7,10.9,7.2,18.6,13.6,23c6.4,4.5,13.8,5.7,22.2,3.6c8.4-2.1,14.4-6.6,17.9-13.5
		c3.5-6.9,3.9-15.8,1.2-26.7L270.2,100.8z M261.9,141.6c-1.4,3.9-4.4,6.3-8.8,7.4c-4.4,1.1-8.2,0.3-11.3-2.5
		c-3.1-2.7-5.6-7.5-7.3-14.4l-5.8-23.3c-1.7-6.9-1.8-12.2-0.4-16.1c1.5-3.9,4.4-6.3,8.8-7.4c4.4-1.1,8.2-0.3,11.3,2.4
		c3.1,2.7,5.5,7.5,7.2,14.4l5.8,23.3C263.2,132.3,263.4,137.7,261.9,141.6z"/>
	<path fill="#EF5350" d="M348.9,107.7L346,96.6l-10.5,2.8l-14.2-53.6L307,49.5l-20.8,65.7l2.6,8.4l35.8-9.4l4.9,18.5l13.9-3.7
		l-4.9-18.5L348.9,107.7z M299.2,108.9l12.6-37l0.5-2.8l0.4,0l8.9,33.8L299.2,108.9z"/>
</g>
</svg>
