<?xml version="1.0" encoding="utf-8"?>
<!-- Generator: Adobe Illustrator 18.1.1, SVG Export Plug-In . SVG Version: 6.00 Build 0)  -->
<svg version="1.1" id="Слой_1" xmlns="http://www.w3.org/2000/svg" xmlns:xlink="http://www.w3.org/1999/xlink" x="0px" y="0px"
	 viewBox="132.5 0 333 333" enable-background="new 132.5 0 333 333" xml:space="preserve">
<g>
	<path fill="#FFFFFF" d="M197.8,105.3c35,0,63.3-15.2,63.3-33.9c0-2.8,0.4-5.5-0.8-8c-6.7,14.9-32.7,26-62.5,26
		c-29.8,0-55.8-11-62.5-26c-1.1,2.6-0.8,5.2-0.8,8C134.5,90.2,162.9,105.3,197.8,105.3z"/>
	<path fill="#FFFFFF" d="M197.8,79.4c29.8,0,54.8-11,61.5-26c1.1-2.5,1.8-5.2,1.8-8c0-18.7-28.3-33.9-63.3-33.9
		c-35,0-63.3,15.2-63.3,33.9c0,2.8,0.6,5.5,1.8,8C143,68.4,168,79.4,197.8,79.4z"/>
	<path fill="#FFFFFF" d="M197.8,131.2c35,0,63.3-15.2,63.3-33.9c0-2.8,0.4-5.5-0.8-8c-6.7,14.9-32.7,26-62.5,26
		c-29.8,0-55.8-11-62.5-26c-1.1,2.5-0.8,5.2-0.8,8C134.5,116,162.9,131.2,197.8,131.2z"/>
	<path fill="#FFFFFF" d="M261.1,123.4c0-2.8,0.4-5.5-0.8-8c-6.7,15-32.7,26-62.5,26c-29.8,0-55.8-11-62.5-26c-1.1,2.5-0.8,5.2-0.8,8
		c0,18.7,28.3,33.9,63.3,33.9C232.8,157.4,261.1,142.2,261.1,123.4z"/>
	<path fill="#FFFFFF" d="M400.1,253.5c-29.8,0-55.8-11-62.5-26c-1.1,2.6-0.8,5.2-0.8,8c0,18.7,28.4,33.9,63.3,33.9
		c35,0,63.3-15.2,63.3-33.9c0-2.8,0.4-5.5-0.8-8C456,242.4,429.9,253.5,400.1,253.5z"/>
	<path fill="#FFFFFF" d="M400.1,279.4c-29.8,0-55.8-11-62.5-26c-1.1,2.5-0.8,5.2-0.8,8c0,18.7,28.3,33.9,63.3,33.9
		s63.3-15.2,63.3-33.9c0-2.8,0.4-5.5-0.8-8C455.9,268.4,430,279.4,400.1,279.4z"/>
	<path fill="#FFFFFF" d="M336.9,209.6c0,2.8,0.6,5.5,1.8,8c6.7,14.9,31.7,26,61.5,26c29.8,0,54.8-11,61.5-26c1.1-2.5,1.8-5.2,1.8-8
		c0-18.7-28.3-33.9-63.3-33.9S336.9,190.8,336.9,209.6z"/>
	<path fill="#FFFFFF" d="M400.1,305.5c-29.8,0-55.8-11-62.5-26c-1.1,2.5-0.8,5.2-0.8,8c0,18.7,28.3,33.9,63.3,33.9
		s63.3-15.2,63.3-34c0-2.8,0.4-5.5-0.8-8C455.9,294.4,430,305.5,400.1,305.5z"/>
	<path fill="#FFFFFF" d="M338.5,85.8L336.9,71c24.5-1.4,49.3,11.3,60.8,33.3c4.1,7.8,10.3,26.7,12,38.2c0.4,2.9,2.9,5.2,6,5.2h18.3
		c3.2,0,5.7-2.7,5.6-5.8c-0.6-20.1-5-31.4-15.9-52.1c-17.5-33.4-52.6-52.7-89.9-50L332,23.9c-0.2-2.2-2.9-3.2-4.5-1.7l-35,32.2
		c-3.2,2.9-2.7,8.1,0.9,10.4l39,24.7C335.3,91.2,338.8,89.1,338.5,85.8z"/>
	<path fill="#FFFFFF" d="M305.4,268l-39-24.7c-2.8-1.7-6.3,0.5-6,3.7l1.5,14.8c-24.5,1.4-49.3-11.3-60.8-33.3
		c-4.1-7.8-10.3-26.7-12-38.2c-0.4-2.9-2.9-5.2-6-5.2H165c-3.2,0-5.7,2.7-5.6,5.8c0.6,20.1,5,31.4,15.9,52.1
		c17.5,33.4,52.6,52.7,89.9,50l1.7,15.9c0.2,2.2,2.9,3.2,4.5,1.7l35-32.2C309.5,275.6,309.1,270.4,305.4,268z"/>
</g>
</svg>
