<?xml version="1.0" encoding="utf-8"?>
<!-- Generator: Adobe Illustrator 18.1.1, SVG Export Plug-In . SVG Version: 6.00 Build 0)  -->
<svg version="1.1" id="Слой_1" xmlns="http://www.w3.org/2000/svg" xmlns:xlink="http://www.w3.org/1999/xlink" x="0px" y="0px"
	 viewBox="164 0 333 333" enable-background="new 164 0 333 333" xml:space="preserve">
<g>
	<g>
		<path fill="#FFFFFF" d="M320,208.8c-3.5,0.8-6.8,1.6-10,1.6c-7.1,0-10.7-3.8-12.2-6.2c-1.2-1.9-3.8-6.9-1.1-13.6
			c1.6-4,5.3-9.5,10.8-16l-9.1-9L283.9,180L238,225.9c-18.9-6.5-40.8-2.3-55.9,12.9c-14.5,14.5-19,35-13.6,53.3l30.6-31.3l25.6,11.9
			l11.2,25.6l-30.7,30.6c18.3,5.3,38.9,0.8,53.3-13.6c15.2-15.2,19.5-37.1,12.8-56.1l45.8-45.8l4.8-4.8c-0.1-0.1-0.1-0.1-0.1-0.1
			C321.2,208.5,320.5,208.7,320,208.8z"/>
		<path fill="#FFFFFF" d="M354.6,132.8c2-0.8,4-1.2,6-1.2c4.3,0,8.1,1.9,10.7,5.1c4.7,6,3,12.8,1.4,19.4c-0.1,0.5-0.3,1.2-0.5,1.9
			c0.1,0,0.1,0.1,0.1,0.1l4.8-4.8l45.8-45.8c19,6.7,40.9,2.3,56.1-12.8c14.5-14.5,19-35,13.7-53.3l-30.7,30.7L436.4,61l-11.8-25.6
			L456,4.7c-18.3-5.3-38.9-0.8-53.3,13.6c-15.1,15.2-19.4,37-12.9,55.9L343.9,120l-14.4,14.4l9,9C345.1,138,350.5,134.4,354.6,132.8
			z"/>
		<path fill="#FFFFFF" d="M363.9,167.5c-1.9-1.6-4.3-1.6-4.5-1.6c-5.3-3.8,6.5-25.4-1.3-22.1c-4.6,1.9-12.7,8.4-21.2,16.2
			L215.1,38.1l4.7-4.7l-31.9-22.5l-2.2,2.2l-9.3,9.3l-2.2,2.2l22.5,31.9l4.7-4.7l121.8,121.8c-7.9,8.5-14.4,16.6-16.2,21.2
			c-3.2,7.8,18.4-4,22.1,1.3l0,0c0.1,0.1,0.1,2.6,1.6,4.5c16.9,20.3,85.2,112.7,85.2,112.7c14.7,14.7,37.8,7.8,52.7-8
			c15.8-14.9,22.7-37.9,8-52.7C476.6,252.7,384.2,184.5,363.9,167.5z"/>
	</g>
</g>
</svg>
