<?xml version="1.0" encoding="utf-8"?>
<!-- Generator: Adobe Illustrator 21.0.0, SVG Export Plug-In . SVG Version: 6.00 Build 0)  -->
<svg version="1.1" id="Layer_1" xmlns="http://www.w3.org/2000/svg" xmlns:xlink="http://www.w3.org/1999/xlink" x="0px" y="0px"
	 viewBox="0 0 36 36" style="enable-background:new 0 0 36 36;" xml:space="preserve">
<style type="text/css">
	.st0{fill:#FFFFFF;}
</style>
<g id="search_1_">
	<g id="search">
		<path class="st0" d="M35.5,31.2l-8.9-8.9c1.4-2.2,2.3-4.9,2.3-7.8c0-7.9-6.4-14.3-14.3-14.3C6.7,0.3,0.3,6.7,0.3,14.6
			s6.4,14.3,14.3,14.3c2.9,0,5.5-0.8,7.8-2.3l8.9,8.9c0.3,0.3,0.8,0.3,1.1,0l3.2-3.2C35.8,32,35.8,31.5,35.5,31.2z M4.8,14.6
			c0-5.4,4.4-9.8,9.8-9.8s9.8,4.4,9.8,9.8s-4.4,9.8-9.8,9.8S4.8,20,4.8,14.6z"/>
	</g>
</g>
</svg>
